<svg width="0" height="0" class="hidden">
  <symbol viewBox="0 0 512 512" xmlns="http://www.w3.org/2000/svg" id="high-platform">
    <path d="M499.477 327.55c-.277-36.35-3.223-70.115-18.689-80.74-10.27-7.06-23.16-13.328-38.314-18.633a7.5 7.5 0 1 0-4.955 14.159c13.898 4.865 25.599 10.529 34.774 16.837 1.56 1.073 4.849 4.577 7.599 15.74l-55.059 3.219c-20.434 1.195-39.017 13.207-48.497 31.349l-9.418 18.021h-36.83c-3.955-3.608-12.505-11.182-23.787-19.887-31.211-24.082-70.238-37.344-109.892-37.344H28.249c1.843-28.772 6.829-51.582 11.514-67.506 5.762 17.858 17.101 32.092 33.605 41.891 22.462 13.338 47.287 14.374 54.36 14.374 69.765 0 89.785-56.468 98.335-80.679.384-1.021 3.263-8.823 4.838-17.608.28-1.561.49-3.056.656-4.509 2.79 2.9 5.693 6.133 8.706 9.519l-8.058 10.895a22.349 22.349 0 0 0-4.163 16.71 22.354 22.354 0 0 0 8.873 14.759c3.915 2.896 8.552 4.416 13.333 4.416 1.12 0 2.249-.084 3.378-.253a22.36 22.36 0 0 0 14.76-8.872l4.039-5.461c1.194.95 2.387 1.871 3.581 2.758l-2.294 3.974c-3.005 5.205-3.804 11.269-2.248 17.074s5.278 10.657 10.482 13.662a22.348 22.348 0 0 0 11.213 3.01c7.781 0 15.36-4.035 19.523-11.245l4.329-7.498c2.27.481 4.561.89 6.871 1.214l-3.212 9.666a22.352 22.352 0 0 0 1.236 17.176 22.344 22.344 0 0 0 13.02 11.271c2.332.775 4.73 1.16 7.118 1.16 3.452 0 6.882-.805 10.058-2.396a22.346 22.346 0 0 0 11.271-13.021l6.026-18.13c14.112 2.128 26.638 4.479 38.13 7.155a7.532 7.532 0 0 0 1.707.197 7.5 7.5 0 0 0 1.694-14.807c-11.282-2.626-23.514-4.942-37.14-7.043a22.327 22.327 0 0 0-2.191-13.017 22.346 22.346 0 0 0-13.019-11.271c-11.772-3.915-24.535 2.48-28.449 14.256l-1.429 4.3-.064-.007a85.74 85.74 0 0 1-3.672-.482l2.716-4.705c6.202-10.744 2.508-24.531-8.236-30.735-10.745-6.206-24.533-2.508-30.734 8.236l-5.147 8.915a122.062 122.062 0 0 1-2.216-1.733l4.875-6.592c3.574-4.831 5.053-10.766 4.163-16.71s-4.04-11.186-8.872-14.759a22.353 22.353 0 0 0-16.71-4.163 22.35 22.35 0 0 0-14.759 8.872l-.671.907c-9.149-10.207-17.633-18.989-26.997-22.843l-.035-.014c-3.243-1.33-6.592-2.076-10.112-2.076-16.311 0-22.065 16.322-28.158 33.604l-1.032 2.921a7.5 7.5 0 0 0 4.558 9.577c.83.295 1.677.435 2.51.435a7.503 7.503 0 0 0 7.067-4.992l1.044-2.953c5.174-14.679 8.7-23.591 14.011-23.591 1.168 0 2.368.228 3.599.645 2.322 2.703 1.135 15.942-3.815 28.949-.023.061-.045.12-.066.181-8.111 22.966-24.988 70.754-84.22 70.754-6.107 0-27.525-.885-46.702-12.271-18.546-11.011-28.756-28.426-30.421-51.81 3.338-.128 7.621-.166 12.268.113l.127.408c4.149 13.281 15.17 48.562 64.73 48.562 24.532 0 42.615-9.271 55.283-28.342a7.5 7.5 0 0 0-12.495-8.298c-9.807 14.764-23.403 21.641-42.788 21.641-38.531 0-46.556-25.689-50.413-38.034-1.248-3.996-2.001-6.407-3.935-8.34a7.497 7.497 0 0 0-4.531-2.156c-13.996-1.446-26.347-.051-26.866.01a7.503 7.503 0 0 0-5.785 3.98c-.916 1.756-22.448 43.846-23.646 117.785a7.5 7.5 0 0 0 7.377 7.62l.124.001a7.501 7.501 0 0 0 7.497-7.379c.012-.758.036-1.497.053-2.248h168.803c36.356 0 72.129 12.152 100.729 34.22a383.14 383.14 0 0 1 10.024 8.011H28.97a416.975 416.975 0 0 1-.645-8.587c-.266-4.134-3.832-7.277-7.967-7.002a7.5 7.5 0 0 0-7.002 7.967c.163 2.523.353 5.07.563 7.622H13.5C6.056 327.5 0 333.556 0 341v29c0 7.444 6.056 13.5 13.5 13.5h485c7.444 0 13.5-6.056 13.5-13.5v-29c0-7.115-5.535-12.947-12.523-13.45zM348.121 202.48a7.477 7.477 0 0 1 3.353-.799c.796 0 1.596.128 2.373.387 1.901.632 3.442 1.966 4.34 3.757s1.044 3.824.412 5.726l-9.462 28.469c-.632 1.901-1.966 3.443-3.757 4.341s-3.824 1.044-5.725.411h-.001c-1.901-.632-3.442-1.966-4.34-3.757s-1.044-3.824-.412-5.726l6.166-18.554.02-.061 3.275-9.853a7.457 7.457 0 0 1 3.758-4.341zm-39.913-20.033c1.271 0 2.56.323 3.736 1.003 3.582 2.068 4.813 6.665 2.746 10.246l-15 25.979c-2.067 3.583-6.667 4.815-10.244 2.746h-.001a7.45 7.45 0 0 1-3.495-4.555 7.45 7.45 0 0 1 .75-5.69l15-25.981a7.506 7.506 0 0 1 6.508-3.748zm-41.185-23.958a7.436 7.436 0 0 1 5.57 1.388 7.447 7.447 0 0 1 2.957 4.919 7.441 7.441 0 0 1-1.388 5.57l-17.839 24.119a7.451 7.451 0 0 1-4.92 2.957 7.44 7.44 0 0 1-5.569-1.387 7.455 7.455 0 0 1-2.958-4.921 7.449 7.449 0 0 1 1.388-5.569l17.84-24.119a7.45 7.45 0 0 1 4.919-2.957zm122.608 157.938c7.052-13.496 20.876-22.433 36.077-23.321l56.78-3.32c1.481 12.171 1.902 25.473 1.991 37.714H383.844zM497 368.5h-15V358c0-4.143-3.357-7.5-7.5-7.5s-7.5 3.357-7.5 7.5v10.5h-39.625V358c0-4.143-3.357-7.5-7.5-7.5s-7.5 3.357-7.5 7.5v10.5H372.75V358c0-4.143-3.357-7.5-7.5-7.5s-7.5 3.357-7.5 7.5v10.5h-39.625V358c0-4.143-3.357-7.5-7.5-7.5s-7.5 3.357-7.5 7.5v10.5H263.5V358c0-4.143-3.357-7.5-7.5-7.5a7.5 7.5 0 0 0-7.5 7.5v10.5h-39.625V358c0-4.143-3.358-7.5-7.5-7.5s-7.5 3.357-7.5 7.5v10.5H154.25V358c0-4.143-3.358-7.5-7.5-7.5s-7.5 3.357-7.5 7.5v10.5H99.625V358c0-4.143-3.358-7.5-7.5-7.5s-7.5 3.357-7.5 7.5v10.5H45V358c0-4.143-3.358-7.5-7.5-7.5S30 353.857 30 358v10.5H15v-26h482z"></path>
  </symbol>
  <symbol viewBox="0 0 24 24" xmlns="http://www.w3.org/2000/svg" id="instagram">
    <path d="M12.004 5.838a6.157 6.157 0 0 0-6.158 6.158 6.157 6.157 0 0 0 6.158 6.158 6.157 6.157 0 0 0 6.158-6.158 6.157 6.157 0 0 0-6.158-6.158zm0 10.155a3.996 3.996 0 1 1 3.997-3.997 3.995 3.995 0 0 1-3.997 3.997z"></path>
    <path d="M16.948.076c-2.208-.103-7.677-.098-9.887 0-1.942.091-3.655.56-5.036 1.941C-.283 4.325.012 7.435.012 11.996c0 4.668-.26 7.706 2.013 9.979 2.317 2.316 5.472 2.013 9.979 2.013 4.624 0 6.22.003 7.855-.63 2.223-.863 3.901-2.85 4.065-6.419.104-2.209.098-7.677 0-9.887-.198-4.213-2.459-6.768-6.976-6.976zm3.495 20.372c-1.513 1.513-3.612 1.378-8.468 1.378-5 0-7.005.074-8.468-1.393-1.685-1.677-1.38-4.37-1.38-8.453 0-5.525-.567-9.504 4.978-9.788 1.274-.045 1.649-.06 4.856-.06l.045.03c5.329 0 9.51-.558 9.761 4.986.057 1.265.07 1.645.07 4.847-.001 4.942.093 6.959-1.394 8.453z"></path>
    <circle cx="18.406" cy="5.595" r="1.439"></circle>
  </symbol>
  <symbol viewBox="0 0 512 512" xmlns="http://www.w3.org/2000/svg" id="overhigh-platform">
    <path d="M448.8 232.967c-27.612 0-54.368-7.848-77.59-22.684 1.065-6.332-2.044-12.879-8.086-15.9-4.874-2.437-10.432-1.956-14.725.757l-25.401-16.933c1.093-6.349-2.014-12.927-8.073-15.957-4.874-2.437-10.432-1.956-14.726.757l-25.401-16.934c1.093-6.349-2.014-12.926-8.074-15.956-4.874-2.436-10.432-1.956-14.725.757l-35.879-23.921a15 15 0 0 0-18.927 1.874l-29.346 29.346c-13.407 13.408-35.221 13.406-48.628 0-4.117-4.632-23.218-20.628-50.04-13.2-17.796 4.931-31.629 19.122-36.101 37.031l-16.564 66.257a14.979 14.979 0 0 0-.448 3.639v64.267c0 .414.029.82.062 1.226C6.168 307.378 0 321.148 0 336.333v56.233c0 8.284 6.716 15 15 15h121.882c18.656 0 36.197-7.266 49.391-20.46l.05-.05a19.417 19.417 0 0 1 20.92-4.264l30.529 12.215c20.852 8.333 42.801 12.559 65.238 12.559h97.59c61.426 0 111.4-49.974 111.4-111.4 0-34.839-28.344-63.199-63.2-63.199zm-48.2 144.6h-97.589c-18.606 0-36.81-3.505-54.097-10.414l-30.521-12.212a49.39 49.39 0 0 0-53.325 10.944l-.061.062c-7.522 7.494-17.507 11.62-28.125 11.62H30v-41.233c0-13.877 11.29-25.167 25.167-25.167h101.831a297.43 297.43 0 0 1 94.258 15.297A327.407 327.407 0 0 0 355.003 343.3h64.42c19.356 0 38.04-4.38 54.917-12.67-13.001 27.704-41.167 46.937-73.74 46.937zm-288.066-96.401c3.72-12.438 11.97-23.337 23.323-30.167 15.735-9.477 35.598-10.023 51.84-1.423 28.837 15.263 60.068 31.797 87.993 46.582l21.819 11.552a298.096 298.096 0 0 1-36.764-9.707 327.403 327.403 0 0 0-103.747-16.837zM419.422 313.3h-2.756c-29.088 0-58.06-7.195-83.782-20.806l-43.157-22.849c-27.926-14.785-59.158-31.321-87.995-46.583-25.483-13.494-56.658-12.636-81.348 2.235-20.364 12.252-34.36 32.855-38.652 55.87H46.067v-47.42l16.118-64.472a21.367 21.367 0 0 1 15.003-15.39c6.463-1.791 14.201-.727 20.818 5.501 25.104 25.104 65.95 25.104 91.055 0l20.65-20.65 26.95 17.968-10.144 20.289c-3.705 7.41-.701 16.419 6.708 20.125 7.4 3.7 16.415.712 20.125-6.708l8.467-16.934 23.044 15.363-10.144 20.288c-3.705 7.41-.701 16.419 6.708 20.125 7.4 3.7 16.415.712 20.125-6.708l8.467-16.934 23.044 15.362-10.144 20.289c-3.705 7.41-.701 16.42 6.708 20.125 7.4 3.7 16.415.712 20.125-6.708l8.537-17.074c27.292 16.615 58.43 25.366 90.529 25.366 16.25 0 29.81 11.741 32.641 27.197-17.217 14.964-38.998 23.133-62.035 23.133z"></path>
  </symbol>
  <symbol xmlns="http://www.w3.org/2000/svg" viewBox="0 0 511.999 511.999" id="regular">
    <path d="M509.982 380.674c-6.038-18.941-23.777-30.446-37.593-36.763-28.384-12.976-59.512-40.574-87.356-72.09l4.154-2.551a7.598 7.598 0 0 0-7.951-12.948l-6.225 3.822a567.927 567.927 0 0 1-10.678-13.2l6.181-4.017a7.596 7.596 0 0 0 2.229-10.51 7.596 7.596 0 0 0-10.51-2.23l-7.15 4.648a562.243 562.243 0 0 1-11.537-16.111l5.307-3.296a7.595 7.595 0 0 0 2.444-10.462 7.595 7.595 0 0 0-10.463-2.444l-5.737 3.565c-10.014-15.469-18.31-30.17-24.198-42.89-.851-2.282-8.099-23.21 6.35-37.658a7.596 7.596 0 0 0-.001-10.744 7.597 7.597 0 0 0-10.744 0c-15.575 15.576-14.263 35.425-11.94 46.271-9.082 2.578-26.163 6.855-45.351 8.775-45.518 4.558-67.888-7.296-78.633-18.042-39.043-39.042-41.575-77.949-41.595-78.311a7.597 7.597 0 0 0-13.614-4.272L1.572 217.365a7.596 7.596 0 0 0 1.901 11.008c2.126 1.375 213.344 137.893 272.866 174.032 48.443 29.412 114.283 43.351 164.693 43.35 15.222 0 29.044-1.272 40.546-3.773a7.595 7.595 0 0 0 4.648-3.12l23.617-34.354c.016-.023.027-.051.044-.075.183-.273.349-.558.496-.853.028-.054.051-.109.077-.165.13-.278.243-.563.339-.857.01-.029.025-.057.034-.086l.028-.094.028-.096c.47-1.596 2.695-10.313-.907-21.608zm-328.275-87.255c58.135 37.165 97.92 62.275 118.252 74.632 48.443 29.413 114.283 43.35 164.692 43.35 8.021 0 15.638-.363 22.747-1.063l-11.957 17.392c-23.67 4.537-56.217 3.738-89.962-2.261-38.183-6.788-74.143-19.592-101.254-36.052-53.223-32.313-228.48-145.374-265.583-169.332l16.18-21.064a44919.21 44919.21 0 0 0 121.842 78.373 7.59 7.59 0 0 0 10.494-2.299 7.595 7.595 0 0 0-2.298-10.495 38849.628 38849.628 0 0 1-43.438-27.877c7.952-14.643 12.129-31.048 12.129-47.885 0-23.357-8.193-46.109-23.068-64.065a7.598 7.598 0 0 0-11.701 9.693c12.623 15.236 19.575 34.546 19.575 54.371 0 13.913-3.365 27.469-9.763 39.638a48994.352 48994.352 0 0 1-64.486-41.545l72.964-94.991c4.646 16.911 15.844 43.684 42.761 70.601 38.645 38.645 116.899 19.603 140.053 12.831 5.899 11.911 13.541 25.097 22.354 38.7l-25.812 16.034a7.595 7.595 0 0 0-2.444 10.462 7.59 7.59 0 0 0 10.463 2.444l26.238-16.299a589.775 589.775 0 0 0 11.692 16.382l-20.513 13.333a7.598 7.598 0 0 0 8.281 12.74l21.443-13.938a586.314 586.314 0 0 0 10.373 12.929l-19.075 11.713a7.598 7.598 0 0 0 7.951 12.948l21.08-12.944c41.558 47.63 73.969 68.628 94.155 77.855 27.515 12.579 30.867 28.587 30.756 36.049-23.464 4.075-55.031 3.148-87.729-2.665-38.183-6.788-74.143-19.592-101.251-36.05-20.233-12.295-59.919-37.343-117.957-74.446a7.596 7.596 0 1 0-8.184 12.801z"></path>
  </symbol>
  <symbol viewBox="0 0 507.804 507.804" xmlns="http://www.w3.org/2000/svg" id="runner">
    <path d="M498.427 296.666c.051-.352.077-86.769.077-86.769a23.377 23.377 0 0 0-6.892-16.639l-32.474-32.473a18.254 18.254 0 0 0-12.994-5.383h-13.769a18.361 18.361 0 0 0-16.881 11.115L404.8 191.382a15.708 15.708 0 0 1-14.442 9.51h-9.913c-8.668 0-15.721-7.053-15.721-15.722v-12.348c0-7.039-2.858-13.927-7.842-18.899l-15.154-15.116c-7.167-7.151-18.336-8.679-27.162-3.715l-3.944 2.218-3.406-3.557a7.5 7.5 0 0 0-10.834 10.374l.742.775-14.661 8.246-3.547-3.705a7.5 7.5 0 0 0-10.604-.231 7.499 7.499 0 0 0-.23 10.604l.884.923-14.863 8.36-3.525-3.681a7.5 7.5 0 0 0-10.834 10.374l.861.9-14.623 8.225-2.478-2.588a7.5 7.5 0 0 0-10.604-.23c-2.927 2.803-3.081 7.404-.404 10.404L83.463 265.082l-53.46 6.585C12.898 273.775 0 288.36 0 305.594v9.139a19.009 19.009 0 0 0 11.485 17.466l100.915 43.55a7.5 7.5 0 0 0 2.972.614h359.946c17.913 0 32.486-14.573 32.486-32.486V323.97c0-10.021-3.297-19.535-9.377-27.304zm-117.981-80.773h9.913a30.694 30.694 0 0 0 28.222-18.583l10.694-24.864a3.372 3.372 0 0 1 3.102-2.043h13.769c.901 0 1.749.351 2.387.989l32.475 32.474a8.474 8.474 0 0 1 2.498 6.032v14.908h-8.509c-4.143 0-7.5 3.358-7.5 7.5s3.357 7.5 7.5 7.5h8.509v44.592c-8.044-4.073-17.267-5.684-26.351-4.395l-13.566 1.926V270.85c0-1.989-.79-3.897-2.197-5.304l-9.788-9.787a4.233 4.233 0 0 1-1.248-3.013v-8.681a4.265 4.265 0 0 1 4.261-4.26h8.418c4.143 0 7.5-3.358 7.5-7.5s-3.357-7.5-7.5-7.5h-8.418c-10.62 0-19.261 8.64-19.261 19.26v8.681c0 5.144 2.003 9.98 5.642 13.62l7.592 7.591v10.1l-73.938 10.496-12.909-23.385a7.5 7.5 0 0 0-13.132 7.249l10.153 18.391-26.629 3.78L277 236.939l22.13-11.93 14.032 25.42a7.499 7.499 0 0 0 10.191 2.941 7.5 7.5 0 0 0 2.941-10.19l-13.96-25.289 39.588-21.34c4.53 11.321 15.604 19.342 28.524 19.342zm-111.111 90.77l-27.296-50.881 21.752-11.725 32.451 58.786zm54.612 7.398l21.245-3.016v20.895h-18.925a2.323 2.323 0 0 1-2.32-2.32zm36.245-5.145l17.463-2.479v25.504h-17.463zm32.463-4.608l17.462-2.479v30.112h-17.462zm32.462-4.608l23.805-3.379v33.301c0 1.279-1.04 2.32-2.319 2.32h-21.485V299.7zM252.271 188.878a7.478 7.478 0 0 0 5.418 2.313 7.498 7.498 0 0 0 6.775-10.707l15.212-8.557.933.974a7.474 7.474 0 0 0 5.418 2.313 7.499 7.499 0 0 0 6.788-10.678l15.02-8.448 1.075 1.123a7.474 7.474 0 0 0 5.418 2.313 7.501 7.501 0 0 0 6.706-10.86l.886-.498a7.727 7.727 0 0 1 9.215 1.261l15.154 15.116a11.773 11.773 0 0 1 3.436 8.28v7.87l-115.946 62.5-30.494-28.299 19.908-11.198 2.002 2.091a7.478 7.478 0 0 0 5.418 2.313 7.474 7.474 0 0 0 5.186-2.083c2.761-2.644 3.056-6.89.833-9.881l14.682-8.258zM31.837 286.556l54.929-6.767a7.516 7.516 0 0 0 2.76-.907l63.168-35.53 6.868 6.373a7.472 7.472 0 0 0 5.1 2.002 7.5 7.5 0 0 0 5.104-12.997l-3.341-3.101 23.133-13.011 34.35 31.878a6.795 6.795 0 0 1 1.376 1.782l28.235 52.631-29.195 4.144-23.694-44.167a20.491 20.491 0 0 0-4.125-5.342l-2.22-2.061a7.5 7.5 0 0 0-10.599.395 7.5 7.5 0 0 0 .395 10.599l2.221 2.062a5.51 5.51 0 0 1 1.11 1.438l21.095 39.322-91.601 13.003-101.713-25.428c1.208-8.448 7.96-15.249 16.644-16.318zm460.967 57.32c0 9.642-7.845 17.486-17.486 17.486H116.921l-96.915-41.824 94.682 23.67a7.536 7.536 0 0 0 2.873.15l191.385-27.168v13.43c0 9.55 7.77 17.32 17.32 17.32h120.335c9.55 0 17.319-7.77 17.319-17.32v-35.042c7.539.148 14.874 3.2 20.269 8.594 5.555 5.555 8.614 12.94 8.614 20.795v19.909z"></path>
  </symbol>
  <symbol viewBox="0 0 60 60" xmlns="http://www.w3.org/2000/svg" id="shoes">
    <path d="M59 50.278V30a3 3 0 0 0-3-3h-1.27a3 3 0 0 0-2.911 2.291 13.456 13.456 0 0 1-3.894 6.771 25.839 25.839 0 0 1-8.562-.706L41.225 31a3 3 0 0 0-1.211-3.761L38 26.035a2.968 2.968 0 0 0-3.829.625 58.965 58.965 0 0 1-1.557 1.741l-2.1-1.258a1 1 0 1 0-1.03 1.714l1.707 1.025a68.798 68.798 0 0 1-1.565 1.528l-2.112-1.267a1 1 0 1 0-1.03 1.714l1.6.958c-.544.479-1.11.96-1.7 1.445l-1.862-1.117a1 1 0 1 0-1.03 1.714l1.208.725a49.41 49.41 0 0 1-2.351 1.657l-1.827-1.1a1 1 0 1 0-1.03 1.714l.96.576a34.906 34.906 0 0 1-8.094 3.607A25.056 25.056 0 0 1 7 43C4.924 43 .812 44.007.107 47.812c-.073.392-.11.79-.107 1.188 0 10.874 9.9 11 10 11h44a6.006 6.006 0 0 0 6-6v-2a1.993 1.993 0 0 0-1-1.722zM53.761 29.77c.11-.447.509-.763.969-.77H56a1 1 0 0 1 1 1v12l-1.6-1.2a1.007 1.007 0 0 1-.4-.8v-1.081a3 3 0 0 0-2.793-2.992 15.796 15.796 0 0 0-1.42-.016 15.768 15.768 0 0 0 2.974-6.141zM48.98 38a26.651 26.651 0 0 1 3.1-.08 1 1 0 0 1 .924 1V40a3.017 3.017 0 0 0 1.2 2.4L57 44.5V50H41.268a166.03 166.03 0 0 0 8.4-3.725 2.358 2.358 0 0 0-.565-4.437c-1.915-.369-6.046-1.453-8.682-4.176 2.825.497 5.704.611 8.559.338zm-23.465 1.14l-1.281-.769c.8-.552 1.559-1.119 2.3-1.69l1.955 1.173a1 1 0 0 0 1.03-1.714l-1.322-.794a63.756 63.756 0 0 0 1.687-1.455l1.605.963a1 1 0 0 0 1.03-1.714l-1.119-.664a66.994 66.994 0 0 0 1.55-1.537l1.531.918a1 1 0 0 0 1.03-1.714l-1.151-.691c.51-.556.96-1.066 1.331-1.5a.983.983 0 0 1 1.272-.2l2.015 1.208a1 1 0 0 1 .409 1.251l-2.31 5.4a1 1 0 0 0 .025.841c2.561 5.11 8.976 6.845 11.6 7.351.178.03.305.187.298.367a.324.324 0 0 1-.193.3c-1.878.9-6.92 3.256-13.143 5.589-.145.052-.292.1-.427.156-.9.334-1.746.628-2.549.883-.722.229-1.4.43-2.053.607a15.493 15.493 0 0 0-11.228-8.639 12.473 12.473 0 0 0-2-.215h-1.349a40.55 40.55 0 0 0 6.328-3.251l2.1 1.259a1 1 0 0 0 1.03-1.714zM2.073 48.182C2.651 45.058 6.825 45 7.063 45a25.135 25.135 0 0 0 1.553-.148h8.792a10.7 10.7 0 0 1 1.647.184 13.471 13.471 0 0 1 9.573 7.164A31.749 31.749 0 0 1 21 53h-7c-3.966 0-10.174-3.486-11.969-4.546.011-.093.025-.183.042-.272zM58 54a4 4 0 0 1-4 4H10a7.976 7.976 0 0 1-7.869-7.181C4.806 52.315 10.144 55 14 55h7a36.674 36.674 0 0 0 12.292-2 59.088 59.088 0 0 0 2.645-.915l.011-.005.229-.08H58z"></path>
    <path d="M45 56h10a1 1 0 0 0 0-2H45a1 1 0 0 0 0 2zm-1.1-28.1c.265 0 .52-.105.707-.293l5.517-5.516a1 1 0 1 0-1.414-1.414l-5.517 5.516A1 1 0 0 0 43.9 27.9z"></path>
    <path d="M11.7 32.433a1 1 0 0 0 .485 1.941l1.058-.265a38.566 38.566 0 0 1-1.3 4.255 1 1 0 1 0 1.869.712 41.089 41.089 0 0 0 1.631-5.516l2.4-.6a1 1 0 0 0-.484-1.94l-1.469.367c.167-.917.314-1.856.435-2.82l2.226-.557a1 1 0 0 0-.484-1.94l-1.508.377c.065-.713.118-1.455.16-2.221l1.832-.458a1 1 0 0 0-.484-1.941l-1.27.317c.017-.753.021-1.481.014-2.184l1.74-.435a1 1 0 0 0-.484-1.941l-1.3.326a48.246 48.246 0 0 0-.121-2 1 1 0 0 1 .757-1.048l2.273-.569a1 1 0 0 1 1.175.6l2.19 5.45a1 1 0 0 0 .613.576c5.431 1.8 11.189-1.5 13.417-3.011a.342.342 0 0 1 .451.059.33.33 0 0 1 .074.352c-.279.8-.776 2.167-1.451 3.946a1 1 0 1 0 1.869.71c.684-1.8 1.187-3.189 1.464-3.981a2.354 2.354 0 0 0-3.53-2.742c-1.614 1.092-5.306 3.248-9.1 3.184a31.944 31.944 0 0 0 6.3-5.816c.665-.79 1.377-1.54 2.131-2.246a1 1 0 0 1 1.358.051l.765.765a3.01 3.01 0 0 0 2.544.848l3.465-.5 3.89 3.889-7.121 7.121a1 1 0 0 0 1.414 1.414l7.826-7.83 1.42 1.42a4 4 0 0 1 0 5.656l-7.78 7.78a1 1 0 1 0 1.414 1.414l7.78-7.78a6 6 0 0 0 0-8.484l-1.419-1.419a2.029 2.029 0 0 0-1.914-.5l-.206-.206L34.565.876a3.08 3.08 0 0 0-4.242 0l-.9.9a3 3 0 0 0-.439 3.679 13.456 13.456 0 0 1 2.036 7.54 25.843 25.843 0 0 1-6.555 5.556L22.7 14.16a3 3 0 0 0-3.515-1.81l-2.282.57a2.992 2.992 0 0 0-2.261 3.156c.057.672.1 1.466.132 2.329L12.4 19a1 1 0 0 0 .485 1.94l1.92-.48c0 .706-.01 1.436-.029 2.189l-2.376.594a1 1 0 0 0 .485 1.94l1.791-.448a53.77 53.77 0 0 1-.186 2.228l-2.09.522a1 1 0 1 0 .485 1.941l1.341-.335c-.137.973-.3 1.919-.482 2.831zm19-28.015a1.015 1.015 0 0 1 .141-1.229l.9-.9a1.029 1.029 0 0 1 1.414 0l8.486 8.485-1.981.283a1 1 0 0 1-.847-.283l-.765-.765a3 3 0 0 0-4.091-.14c-.338.3-.673.632-1.015.993A15.743 15.743 0 0 0 30.7 4.418z"></path>
  </symbol>
  <symbol viewBox="0 0 510.544 510.544" xmlns="http://www.w3.org/2000/svg" id="slippers">
    <path d="M490.452 289.731h-9.666c-4.143 0-7.5 3.358-7.5 7.5s3.357 7.5 7.5 7.5h9.666a5.098 5.098 0 0 1 5.093 5.092v30.702c0 4.274-3.478 7.752-7.753 7.752H113.026a5.876 5.876 0 0 1-2.674-.646l-94.979-48.713 2.68-7.145 75.787 26.293a7.193 7.193 0 0 0 2.549.414l210.125-2.531a7.494 7.494 0 0 0 3.921-1.163l12.954-8.201a11.94 11.94 0 0 1 6.398-1.855h119.037c4.143 0 7.5-3.358 7.5-7.5s-3.357-7.5-7.5-7.5H431.75l-33.94-33.173a7.498 7.498 0 0 0-10.605.122 7.5 7.5 0 0 0 .121 10.606l22.965 22.446h-80.503a26.918 26.918 0 0 0-14.423 4.182l-11.157 7.063-4.769.057-88.653-84.489 17.39-14.331 18.851 18.851c-.939 4.563.351 9.497 3.884 13.03l19.528 19.528c2.705 2.705 6.301 4.194 10.125 4.194s7.42-1.489 10.125-4.194l19.617-19.617c5.582-5.583 5.582-14.667 0-20.25l-19.527-19.527a14.227 14.227 0 0 0-10.126-4.195c-.991 0-1.966.105-2.915.3l-15.879-15.878 13.604-11.211a4.232 4.232 0 0 1 5.659.24l83.333 81.448a7.474 7.474 0 0 0 5.241 2.136 7.473 7.473 0 0 0 5.364-2.258 7.5 7.5 0 0 0-.121-10.606l-83.332-81.448a19.21 19.21 0 0 0-25.684-1.089l-17.555 14.467a18.491 18.491 0 0 0-13.468 3.242l-5.243 3.733a18.516 18.516 0 0 0-7.728 13.566c-.036.427-.031.851-.037 1.276l-23.823 19.632a16.665 16.665 0 0 0-6.085 12.9v81.843l-6.431.077-21.929-64.758a16.665 16.665 0 0 0-15.86-11.479h-39.143a16.645 16.645 0 0 0-16.469 13.952l-1.677 10.056a7.499 7.499 0 0 0 6.164 8.631 7.502 7.502 0 0 0 8.631-6.165l1.677-10.056a1.692 1.692 0 0 1 1.674-1.418h39.143c.734 0 1.383.469 1.633 1.229l20.385 60.199-72.267.871-.931-.323 3.392-18.732a7.5 7.5 0 1 0-14.76-2.673l-2.975 16.429-60.642-21.04c-6.983-2.421-14.49 1.101-17.086 8.024l-3.652 9.74a13.513 13.513 0 0 0 6.488 16.771l96.155 49.315a20.952 20.952 0 0 0 9.52 2.299H487.79c12.546 0 22.753-10.207 22.753-22.752v-30.702c.001-11.077-9.012-20.09-20.091-20.09zm-191.235-65.85l-18.653 18.653L262 223.97l18.653-18.653zm-62.338-35.955a3.506 3.506 0 0 1 1.479-2.596l5.243-3.733a3.543 3.543 0 0 1 4.568.381l17.261 17.26-9.508 9.507-18.015-18.015a3.5 3.5 0 0 1-1.028-2.804zm-29.892 45.719l70.981 67.648-70.981.855z"></path>
  </symbol>
  <symbol viewBox="0 0 507.299 507.299" xmlns="http://www.w3.org/2000/svg" id="sneakers">
    <path d="M95.941 264.099a7.48 7.48 0 0 0 3.296-.767l36.833-18.055 15.966 24.836c1.716 2.671 4.587 4.207 7.653 4.207.645 0 1.299-.068 1.953-.208 3.758-.804 6.556-3.779 7.129-7.577l6.434-40.441 30.24 29.617a9.152 9.152 0 0 0 10.458 1.661 9.154 9.154 0 0 0 5.015-9.327l-4.667-37.375 27.742 26.506a9.154 9.154 0 0 0 11.086 1.19 9.154 9.154 0 0 0 3.996-10.409l-11.268-37.893 34.276 25.062a7.5 7.5 0 1 0 8.854-12.108l-39.585-28.944 15.914-26.402c.654-1.084 1.652-1.388 2.188-1.473s1.581-.102 2.535.729l23.936 20.83a7.5 7.5 0 1 0 9.847-11.315l-23.936-20.83a18.076 18.076 0 0 0-14.715-4.231 18.08 18.08 0 0 0-12.702 8.547l-15.749 26.129a9.14 9.14 0 0 0-10.19 11.637l.673 2.265c-3.465 3.667-13.355 9.533-13.355 9.533l-1.079-1.031a9.163 9.163 0 0 0-10.429-1.557 9.163 9.163 0 0 0-4.963 9.301l.16 1.281-21.362 10.471-.89-.872a9.109 9.109 0 0 0-9.301-2.138 9.107 9.107 0 0 0-6.139 7.307l-.604 4.004-19.751 9.681c-2.333-3.139-6.727-3.981-10.065-1.835a7.502 7.502 0 0 0-3.17 8.322l-35.57 17.436a7.5 7.5 0 0 0 3.306 14.236zm137.95-68.204l4.521 15.204-11.173-10.675a57.523 57.523 0 0 0 6.652-4.529zm-32.438 17.333l2.501 20.027-14.462-14.164zm-45.196 35.713l-6.628-10.31 8.838-4.332z"></path>
    <path d="M497.991 299.657c.026-.286-.288-28.794-.288-42.514 0-.166-.005-.328-.017-.494-.845-12.015-8.307-20.223-14.89-27.465-2.285-2.513-4.466-4.918-6.333-7.39 6.11-4.995 7.559-13.666 3.319-20.384l-6.905-10.943c-3.543-5.613-10.027-8.233-16.228-6.982l-8.186-38.041a10.673 10.673 0 0 0-10.435-8.428H397.26c-9.124 0-16.521 7.396-16.52 16.521v27.882c0 1.989-.25 3.982-.87 5.872-2.652 8.09-10.362 13.214-18.802 12.568-3.991-.305-7.743-2.032-10.763-4.66l-20.404-17.756a7.5 7.5 0 0 0-10.73.911c-2.602 3.177-1.979 7.914 1.119 10.61l20.444 17.791a33.165 33.165 0 0 0 26.588 7.809 33.173 33.173 0 0 0 23.254-15.076 33.164 33.164 0 0 0 5.163-17.783v-28.168c0-.84.681-1.521 1.521-1.521h37.273l8.158 37.91-28.811 14.633c-3.905 1.983-6.812 5.542-7.975 9.765s-.49 8.768 1.847 12.471l11.031 17.482c1.508 2.389 3.555 4.427 6.056 5.742a15.66 15.66 0 0 0 7.306 1.816 15.64 15.64 0 0 0 9.526-3.236l22.915-17.636c2.255 2.97 4.712 5.676 7.109 8.313 5.587 6.146 10.422 11.464 11.005 18.167 0 9.452.008 19.118.115 28.734a47.783 47.783 0 0 0-23.61-6.219H366.06a129.32 129.32 0 0 0-75.163 24.087l-6.366 4.547a41.838 41.838 0 0 1-24.319 7.793H58.401a90.933 90.933 0 0 1-29.746-5.003l-11.463-3.968a18.355 18.355 0 0 1 8.089-7.831l44.991-22.053c3.425-1.679 5.27-5.636 4.034-9.245a7.502 7.502 0 0 0-10.409-4.336l-45.218 22.165c-4.611 2.261-8.678 6.194-11.855 10.813-4.389 6.382-6.626 14.005-6.816 21.748l-.008.33c0 31.504 25.631 57.135 57.135 57.135h401.311c26.395 0 48.443-20.95 48.847-47.342.167-10.9-3.319-20.991-9.302-29.141zm-65.466-62.947c-.052.04-.211.163-.472.115a.563.563 0 0 1-.403-.271l-11.211-17.766c-.035-.056-.142-.224-.071-.48.07-.256.249-.346.307-.376l38.736-19.675a.596.596 0 0 1 .781.215l6.905 10.943a.597.597 0 0 1-.142.796zm-48.847 58.248v14.271a7.5 7.5 0 0 0 15 0v-14.271h23.18v66.183h-23.18v-19.949a7.5 7.5 0 0 0-15 0v19.949h-23.18v-66.034c1.849-.089 3.703-.149 5.566-.149zm-38.18 66.182h-23.18v-57.5a113.11 113.11 0 0 1 23.18-6.82zm-52.245-40.341l6.366-4.547a115.664 115.664 0 0 1 7.699-5.046v49.935h-23.18v-35.03a57.279 57.279 0 0 0 9.115-5.312zm-24.115 9.89v30.452h-23.18v-29.754h14.257a57.502 57.502 0 0 0 8.923-.698zm-137.72.697h23.18v29.754h-23.18zm-15 29.754h-23.18v-29.754h23.18zm53.18-29.754h23.18v29.754h-23.18zm38.18 0h23.18v29.754h-23.18zM15.15 322.582l8.598 2.976a105.845 105.845 0 0 0 16.31 4.217v27.741c-13.713-6.104-23.589-19.317-24.908-34.934zm39.908 38.507v-29.773c1.114.035 23.18.069 23.18.069v29.754c0 .001-22.492-.016-23.18-.05zm381.8.051v-66.183s22.903.014 23.18.021v66.141c-.276.007-23.18.021-23.18.021zm38.181-4.04v-58.102c10.275 5.622 17.26 16.535 17.26 29.051s-6.985 23.429-17.26 29.051z"></path>
  </symbol>
  <symbol viewBox="0 -47 512 512" xmlns="http://www.w3.org/2000/svg" id="twitter">
    <path d="M512 55.965c-32.207 1.484-31.504 1.363-35.145 1.668L495.93 3.16s-59.54 21.902-74.633 25.82c-39.64-35.628-98.563-37.203-140.688-11.312-34.496 21.207-53.011 57.625-46.836 100.191C166.637 108.543 110.07 76.72 65.41 23.07L51.285 6.105 40.73 25.488C27.39 49.98 22.96 77.984 28.254 104.34a113.287 113.287 0 0 0 10.976 30.78l-12.117-4.695-1.437 20.246c-1.457 20.566 5.39 44.574 18.32 64.215a114.185 114.185 0 0 0 14.27 17.597l-6.262-.96 7.64 23.199c10.043 30.48 30.903 54.062 57.973 67.172-27.035 11.472-48.875 18.793-84.773 30.601L0 363.293l30.336 16.586c11.566 6.324 52.437 27.445 92.82 33.781 89.766 14.078 190.832 2.613 258.871-58.664 57.309-51.613 76.114-125.031 72.207-201.433-.59-11.567 2.579-22.606 8.922-31.079 12.707-16.964 48.766-66.406 48.844-66.52zm-72.832 48.55c-10.535 14.067-15.813 32.032-14.867 50.579 3.941 77.066-17.028 136.832-62.328 177.629-52.918 47.66-138.274 66.367-234.172 51.324-17.367-2.723-35.317-8.82-50.172-14.91 30.098-10.356 53.34-19.586 90.875-37.352l52.398-24.8-57.851-3.704c-27.711-1.773-50.785-15.203-64.969-37.008a103.763 103.763 0 0 0 22.023-3.671l55.176-15.368-55.636-13.625c-27.036-6.62-42.446-22.797-50.614-35.203-5.363-8.152-8.867-16.504-10.969-24.203 5.579 1.496 12.083 2.563 22.57 3.602l51.497 5.093-40.8-31.828c-29.4-22.93-41.18-57.379-32.544-90.496 91.75 95.164 199.477 88.012 210.32 90.528-2.386-23.184-2.449-23.239-3.074-25.446-13.886-49.09 16.547-74.015 30.274-82.453 28.672-17.621 74.183-20.277 105.707 8.754 6.808 6.266 16.015 8.73 24.633 6.59 7.734-1.922 14.082-3.957 20.296-6.172L434.004 89.32l16.516.012a8240.32 8240.32 0 0 1-11.352 15.184zm0 0"></path>
  </symbol>
  <symbol viewBox="0 0 24 24" xmlns="http://www.w3.org/2000/svg" id="vk">
    <path d="M12.145 19.5c3.472 0 2.234-2.198 2.502-2.83-.004-.472-.008-.926.008-1.202.22.062.739.325 1.811 1.367 1.655 1.67 2.078 2.665 3.415 2.665h2.461c.78 0 1.186-.323 1.389-.594.196-.262.388-.722.178-1.438-.549-1.724-3.751-4.701-3.95-5.015a2.84 2.84 0 0 1 .103-.175h-.002c.632-.835 3.044-4.449 3.399-5.895a.019.019 0 0 0 .002-.008c.192-.66.016-1.088-.166-1.33-.274-.362-.71-.545-1.299-.545h-2.461c-.824 0-1.449.415-1.765 1.172-.529 1.345-2.015 4.111-3.129 5.09a64.114 64.114 0 0 1 .007-3.233c.036-1.535.152-3.029-1.441-3.029H9.339c-.998 0-1.953 1.09-.919 2.384.904 1.134.325 1.766.52 4.912-.76-.815-2.112-3.016-3.068-5.829-.268-.761-.674-1.466-1.817-1.466H1.594C.596 4.501 0 5.045 0 5.956 0 8.002 4.529 19.5 12.145 19.5zM4.055 6.001c.217 0 .239 0 .4.457.979 2.883 3.175 7.149 4.779 7.149 1.205 0 1.205-1.235 1.205-1.7l-.001-3.702C10.372 6.98 9.926 6.37 9.633 6l3.508.004c.002.017-.02 4.095.01 5.083 0 1.403 1.114 2.207 2.853.447 1.835-2.071 3.104-5.167 3.155-5.293.075-.18.14-.241.376-.241h2.471l-.002.009c-.225 1.05-2.446 4.396-3.189 5.435l-.034.05c-.327.534-.593 1.124.045 1.954h.001c.058.07.209.234.429.462.684.706 3.03 3.12 3.238 4.08-.138.022-.288.006-2.613.011-.495 0-.882-.74-2.359-2.23-1.328-1.292-2.19-1.82-2.975-1.82-1.524 0-1.413 1.237-1.399 2.733.005 1.622-.005 1.109.006 1.211-.089.035-.344.105-1.009.105C5.8 18 1.668 7.929 1.509 6.004c.055-.005.812-.002 2.546-.003z"></path>
  </symbol>
</svg>